<?xml version="1.0" encoding="utf-8"?>
<!-- Generator: Adobe Illustrator 16.0.0, SVG Export Plug-In . SVG Version: 6.00 Build 0)  -->
<!DOCTYPE svg PUBLIC "-//W3C//DTD SVG 1.1//EN" "http://www.w3.org/Graphics/SVG/1.1/DTD/svg11.dtd">
<svg version="1.1" id="Layer_1" xmlns="http://www.w3.org/2000/svg" xmlns:xlink="http://www.w3.org/1999/xlink" x="0px" y="0px"
	 width="1000px" height="130px" viewBox="0 0 1000 130" enable-background="new 0 0 1000 130" xml:space="preserve">
<g>
	<path fill="#FFFFFF" d="M0.25,128.75c0-42.834,0-85.667,0-128.5c333.333,0,666.667,0,1000,0c0,42.833,0,85.667,0,128.5
		C666.917,128.75,333.583,128.75,0.25,128.75z M520.558,32.992c1.363,0.17,2.687,0.289,3.992,0.511
		c2.038,0.347,3.03,1.465,2.944,3.512c-0.057,1.357-0.267,2.736-0.621,4.048c-3.303,12.222-6.645,24.433-9.99,36.644
		c-0.932,3.4-1.877,6.8-2.885,10.18c-0.781,2.621-2.55,4.215-5.273,4.707c-0.644,0.116-1.28,0.271-1.895,0.403
		c0,0.866,0,1.638,0,2.396c9.584,0,19.092,0,28.595,0c0-0.845,0-1.587,0-2.39c-1.106-0.157-2.172-0.3-3.235-0.459
		c-3.408-0.511-4.078-1.38-3.717-4.814c0.03-0.286,0.098-0.572,0.174-0.852c1.916-7.134,3.857-14.261,5.729-21.406
		c0.237-0.906,0.633-1.051,1.468-1.017c3.325,0.133,6.657,0.335,9.979,0.239c4.701-0.138,9.229-1.18,13.4-3.451
		c5.601-3.047,9.332-7.427,9.812-14.053c0.578-7.99-3.007-13.281-10.752-15.437c-2.614-0.728-5.391-1.153-8.101-1.194
		c-9.452-0.142-18.907-0.055-28.361-0.055c-0.403,0-0.807,0-1.263,0C520.558,31.413,520.558,32.188,520.558,32.992z M373.247,33.134
		c0.589,0.034,1.08,0.081,1.571,0.089c4.239,0.066,5.094,1.172,4.08,5.293c-0.01,0.04-0.032,0.077-0.043,0.117
		c-2.743,10.052-5.489,20.103-8.226,30.157c-1.918,7.05-3.808,14.107-5.744,21.152c-0.384,1.398-0.043,2.498,1.148,3.243
		c1.333,0.834,2.676,1.715,4.128,2.286c6.243,2.455,12.419,1.764,18.417-0.849c6.438-2.805,11.106-7.688,14.932-13.418
		c4.265-6.389,6.488-13.342,5.481-21.121c-0.622-4.798-3.667-8.343-8.23-9.161c-4.61-0.826-8.613,0.634-12.057,3.747
		c-1.111,1.004-2.252,1.976-3.217,2.82c2.592-9.687,5.265-19.677,7.965-29.768c-6.85,0.977-13.498,1.925-20.205,2.881
		C373.247,31.397,373.247,32.174,373.247,33.134z M59.726,29.512c-1.607-0.127-2.978-0.338-4.127,1.145
		c-0.511,0.659-1.764,1.108-2.636,1.044c-1.795-0.131-3.606-0.525-5.328-1.072c-4.989-1.587-10.024-1.925-15.143-0.857
		c-11.679,2.437-18.13,17.018-10.975,27.023c2.793,3.907,6.215,7.149,9.925,10.139c3.446,2.776,6.657,5.767,9.167,9.476
		c4.301,6.354-0.353,15.389-6.489,16.879c-3.926,0.954-7.699,0.692-11.199-1.412c-5.219-3.139-7.339-8.032-7.686-13.899
		c-0.154-2.604,0.479-2.433-2.697-2.456c-0.08,0-0.16,0.042-0.367,0.1c-1.147,7.134-2.302,14.321-3.459,21.52
		c2.808,0.289,2.859,0.316,3.855-1.527c0.712-1.316,1.764-1.928,3.168-1.652c1.414,0.276,2.811,0.708,4.164,1.211
		c6.207,2.303,12.53,2.906,18.981,1.282c9.726-2.448,18.081-13.086,14.329-25.238c-1.408-4.56-4.414-8.104-7.867-11.214
		c-3.679-3.312-7.601-6.355-11.371-9.568c-2.07-1.764-3.276-4.025-3.614-6.767c-0.565-4.588,2.113-9.27,6.23-10.502
		c3.043-0.912,6.111-0.779,9.003,0.611c4.012,1.929,5.882,5.489,6.878,9.591c0.351,1.445,0.424,2.958,0.617,4.441
		c0.188,1.454,1.442,0.727,2.187,1.021c0.119,0.047,0.618-0.441,0.679-0.736C57.224,41.951,58.457,35.803,59.726,29.512z
		 M877.501,95.495c2.861,0,5.525,0.014,8.188-0.007c1.195-0.009,2.691,0.329,3.497-0.256c0.741-0.537,0.754-2.096,1.064-3.212
		c2.04-7.324,4.054-14.662,7.745-21.383c2.148-3.913,4.552-7.663,7.816-10.766c1.124-1.069,2.392-1.946,4.062-1.945
		c1.919,0,2.715,0.94,2.179,2.767c-1.205,4.103-2.505,8.179-3.706,12.283c-1.607,5.491-3.595,10.887-4.201,16.637
		c-0.382,3.608,1.857,6.479,5.454,6.891c2.91,0.333,5.52-0.422,7.873-2.127c3.808-2.761,6.121-6.713,8.613-10.655
		c-0.781-0.507-1.47-0.954-2.182-1.416c-0.893,1.287-1.674,2.572-2.615,3.729c-0.966,1.186-2.034,2.303-3.173,3.321
		c-0.323,0.289-1.191,0.352-1.552,0.119c-0.425-0.275-0.709-0.962-0.794-1.51c-0.076-0.494,0.163-1.056,0.327-1.566
		c2.16-6.675,4.383-13.331,6.479-20.026c0.928-2.967,1.818-5.971,1.658-9.153c-0.158-3.178-1.915-5.453-5.011-6.192
		c-3.517-0.84-6.749,0.004-9.742,1.936c-3.444,2.224-6.186,5.177-8.614,8.428c-1.638,2.192-3.16,4.469-4.734,6.708
		c-0.071-0.028-0.143-0.057-0.214-0.085c1.826-5.717,3.652-11.435,5.462-17.097c-6.518,0.902-12.914,1.787-19.297,2.671
		c0,0.707,0,1.523,0,2.327c0.903,0.101,1.728,0.185,2.55,0.284c2.324,0.28,3.051,1.154,2.48,3.436
		c-1.43,5.719-2.946,11.417-4.477,17.109C880.968,82.953,879.242,89.146,877.501,95.495z M306.875,82.297
		c-0.579,0.872-1.046,1.717-1.648,2.451c-1.261,1.538-2.538,3.073-3.937,4.482c-0.344,0.347-1.37,0.478-1.742,0.218
		c-0.455-0.317-0.598-1.136-0.78-1.765c-0.069-0.238,0.12-0.558,0.209-0.834c1.051-3.238,2.167-6.456,3.145-9.716
		c1.716-5.722,3.548-11.419,4.953-17.219c1.185-4.888-1.677-8.828-6.098-9.156c-3.104-0.23-5.926,0.519-8.524,2.216
		c-3.433,2.243-6.177,5.188-8.605,8.44c-1.633,2.186-3.152,4.457-4.722,6.689c-0.069-0.03-0.139-0.06-0.208-0.09
		c1.827-5.719,3.654-11.438,5.461-17.094c-6.508,0.9-12.872,1.78-19.284,2.667c0,0.672,0,1.517,0,2.413
		c0.38,0,0.671-0.018,0.959,0.002c4.243,0.288,4.817,0.968,3.752,5.127c-1.646,6.435-3.424,12.837-5.162,19.249
		c-1.356,5.003-2.738,9.999-4.14,15.115c3.814,0,7.515,0.019,11.215-0.036c0.275-0.005,0.689-0.492,0.791-0.83
		c0.694-2.306,1.322-4.632,1.972-6.951c2.057-7.348,4.569-14.51,8.833-20.919c1.842-2.77,3.677-5.568,6.385-7.62
		c1.129-0.855,2.368-1.387,3.829-1.18c1.125,0.158,1.792,0.866,1.707,1.921c-0.043,0.53-0.216,1.056-0.373,1.57
		c-1.485,4.886-3.085,9.739-4.438,14.661c-1.23,4.475-2.316,8.996-3.23,13.545c-0.59,2.936,0.888,5.309,3.647,6.352
		c3.354,1.268,6.488,0.51,9.347-1.438c4-2.727,6.354-6.817,8.9-10.845C308.287,83.207,307.601,82.765,306.875,82.297z
		 M65.814,55.949c0.482,0.036,0.856,0.051,1.227,0.094c3.938,0.451,4.769,1.575,3.752,5.433c-1.588,6.022-3.292,12.015-4.908,18.029
		c-0.894,3.324-2.012,6.614-1.864,10.132c0.17,4.047,3.011,6.801,7.044,6.939c3.766,0.128,6.926-1.395,9.345-4.021
		c3.006-3.264,5.618-6.89,8.394-10.364c0.358-0.448,0.676-0.928,1.012-1.394c-0.027,0.793-0.23,1.463-0.44,2.131
		c-0.802,2.545-1.45,5.101-1.37,7.816c0.104,3.531,2.175,5.61,5.685,5.772c3.247,0.15,6.066-0.833,8.574-2.806
		c3.412-2.685,6.052-6.002,8.12-9.934c-0.753-0.443-1.408-0.828-2.098-1.234c-0.496,0.754-0.869,1.462-1.373,2.059
		c-1.311,1.551-2.612,3.125-4.071,4.528c-0.407,0.392-1.538,0.521-1.999,0.231c-0.475-0.298-0.652-1.238-0.743-1.926
		c-0.072-0.547,0.145-1.147,0.295-1.707c2.083-7.738,4.175-15.474,6.27-23.208c0.941-3.476,1.896-6.949,2.871-10.521
		c-0.493-0.027-0.86-0.063-1.227-0.064c-3.042-0.004-6.084,0.037-9.124-0.025c-0.946-0.02-1.254,0.333-1.498,1.199
		c-2.036,7.238-4.205,14.433-7.415,21.264c-2.153,4.582-4.62,8.96-8.284,12.525c-0.878,0.855-1.923,1.626-3.028,2.143
		c-1.838,0.859-3.36-0.172-3.199-2.162c0.126-1.56,0.455-3.129,0.904-4.632c2.617-8.753,5.299-17.486,7.953-26.228
		c0.521-1.717,1.016-3.442,1.535-5.208c-6.865,0.899-13.568,1.778-20.341,2.665C65.814,54.218,65.814,55.033,65.814,55.949z
		 M215.611,56.97c-0.351-0.937-0.612-1.674-0.901-2.4c-1.007-2.537-2.958-3.67-5.611-3.821c-3.544-0.203-6.726,0.835-9.679,2.712
		c-4.485,2.85-7.847,6.807-10.783,11.138c-4.613,6.806-7.533,14.121-6.642,22.583c0.719,6.828,6.692,11.059,13.375,9.379
		c3.712-0.933,6.341-3.393,8.71-6.174c1.284-1.507,2.375-3.178,3.743-5.033c-0.282,1.346-0.507,2.386-0.718,3.43
		c-0.801,3.963,0.935,7.034,4.646,8.031c1.871,0.503,3.829,0.355,5.423-0.718c1.981-1.334,3.916-2.828,5.562-4.548
		c1.993-2.082,3.664-4.471,5.53-6.797c-0.906-0.646-1.566-1.116-2.233-1.592c-1.349,1.656-2.569,3.237-3.884,4.735
		c-0.621,0.707-1.353,1.378-2.161,1.845c-1.186,0.684-2.087,0.121-2.037-1.233c0.045-1.197,0.139-2.422,0.44-3.575
		c2.047-7.832,4.145-15.65,6.246-23.468c0.882-3.282,1.812-6.553,2.767-9.999c-3.091,0.196-6.03,0.382-8.969,0.569
		c-0.249,0.016-0.559-0.052-0.734,0.071c-0.301,0.21-0.631,0.499-0.752,0.827C216.482,54.195,216.095,55.486,215.611,56.97z
		 M347.859,56.98c-0.255-0.699-0.435-1.199-0.619-1.698c-1.206-3.261-3.02-4.464-6.497-4.545c-3.612-0.083-6.774,1.139-9.684,3.123
		c-4.843,3.304-8.406,7.794-11.448,12.712c-3.896,6.298-6.168,13.029-5.369,20.592c0.722,6.832,6.686,11.074,13.36,9.402
		c3.713-0.93,6.346-3.385,8.716-6.165c1.285-1.508,2.377-3.181,3.747-5.036c-0.276,1.331-0.495,2.365-0.705,3.4
		c-0.983,4.834,1.925,8.418,6.843,8.17c1.426-0.072,2.979-0.599,4.195-1.36c4.293-2.688,7.092-6.797,9.999-10.899
		c-0.775-0.559-1.434-1.033-2.106-1.518c-1.372,1.68-2.612,3.298-3.966,4.813c-0.65,0.728-1.446,1.394-2.302,1.852
		c-1.017,0.545-1.895-0.024-1.812-1.172c0.118-1.649,0.272-3.327,0.694-4.918c2.601-9.79,5.282-19.56,7.936-29.336
		c0.253-0.932,0.498-1.865,0.784-2.936c-3.325,0.213-6.436,0.39-9.542,0.646c-0.319,0.026-0.742,0.468-0.873,0.81
		C348.727,54.181,348.346,55.484,347.859,56.98z M628.359,56.988c-0.357-0.964-0.606-1.665-0.875-2.358
		c-1.009-2.596-2.986-3.741-5.694-3.885c-3.548-0.188-6.722,0.864-9.67,2.748c-4.44,2.836-7.776,6.759-10.695,11.053
		c-4.649,6.838-7.583,14.189-6.676,22.696c0.712,6.677,6.644,10.943,13.19,9.377c3.809-0.911,6.512-3.418,8.93-6.276
		c1.264-1.493,2.346-3.142,3.714-4.997c-0.296,1.395-0.533,2.442-0.74,3.497c-0.776,3.943,1.007,7.061,4.714,7.992
		c2.39,0.6,4.643-0.028,6.643-1.396c4.066-2.781,6.841-6.731,9.705-10.743c-0.757-0.559-1.409-1.039-2.109-1.556
		c-1.299,1.603-2.486,3.149-3.769,4.614c-0.649,0.741-1.393,1.458-2.228,1.963c-1.217,0.734-2.195,0.143-2.091-1.269
		c0.119-1.606,0.311-3.236,0.72-4.79c2.179-8.27,4.433-16.52,6.668-24.775c0.657-2.424,1.341-4.841,2.057-7.42
		c-3.352,0.214-6.502,0.396-9.647,0.648c-0.286,0.023-0.664,0.444-0.782,0.76C629.246,54.152,628.855,55.464,628.359,56.988z
		 M867.175,93.032c-1.474-0.235-2.917-0.4-4.329-0.709c-2.123-0.464-2.809-1.207-2.62-3.384c0.177-2.053,0.609-4.106,1.144-6.103
		c2.164-8.102,4.407-16.183,6.63-24.268c1.826-6.644,3.662-13.283,5.499-19.924c0.803-2.901,2.558-4.754,5.631-5.301
		c1.889-0.336,1.873-0.426,1.785-2.384c-0.006-0.116-0.07-0.229-0.115-0.367c-9.609,0-19.203,0-28.811,0c0,0.83,0,1.57,0,2.366
		c1.59,0.265,3.146,0.471,4.68,0.793c1.584,0.333,2.349,1.166,2.305,2.787c-0.041,1.479-0.242,2.989-0.627,4.417
		c-3.367,12.463-6.781,24.914-10.203,37.362c-0.913,3.32-1.857,6.633-2.873,9.922c-0.738,2.393-2.448,3.789-4.895,4.296
		c-0.717,0.148-1.427,0.325-2.087,0.477c0,0.893,0,1.655,0,2.381c9.7,0,19.295,0,28.887,0
		C867.175,94.55,867.175,93.808,867.175,93.032z M435.642,81.764c-0.678,0.983-1.227,1.982-1.968,2.811
		c-1.407,1.572-2.792,3.213-4.435,4.51c-1.378,1.087-2.706,0.225-2.487-1.531c0.234-1.888,0.63-3.771,1.132-5.608
		c4.712-17.266,9.462-34.521,14.2-51.78c0.223-0.812,0.438-1.627,0.647-2.408c-6.794,0.975-13.445,1.928-20.108,2.884
		c0,0.737,0,1.541,0,2.358c1.257,0.089,2.422,0.131,3.576,0.262c1.681,0.191,2.385,0.941,2.348,2.625
		c-0.022,1.029-0.151,2.083-0.419,3.075c-3.057,11.304-6.173,22.591-9.222,33.896c-1.405,5.211-2.825,10.424-4,15.688
		c-0.992,4.447,2.121,8.003,6.67,8.031c2.329,0.015,4.429-0.673,6.357-1.91c4.416-2.834,6.975-7.261,9.924-11.473
		C437.052,82.673,436.363,82.229,435.642,81.764z M576.08,32.995c1.298,0.092,2.463,0.134,3.617,0.265
		c1.681,0.19,2.387,0.94,2.35,2.623c-0.022,1.029-0.15,2.083-0.419,3.075c-3.057,11.304-6.173,22.591-9.222,33.896
		c-1.404,5.211-2.824,10.424-4,15.688c-0.992,4.448,2.119,8.004,6.668,8.033c2.328,0.015,4.43-0.672,6.357-1.909
		c4.416-2.834,6.977-7.26,9.924-11.475c-0.803-0.518-1.491-0.963-2.177-1.406c-1.024,1.402-1.923,2.814-3.007,4.063
		c-1.028,1.184-2.145,2.353-3.419,3.244c-1.452,1.016-2.719,0.217-2.501-1.538c0.234-1.888,0.629-3.771,1.131-5.608
		c4.729-17.304,9.495-34.598,14.248-51.896c0.213-0.773,0.404-1.552,0.597-2.294c-6.79,0.974-13.44,1.927-20.147,2.889
		C576.08,31.343,576.08,32.12,576.08,32.995z M719.885,81.674c-0.938,1.291-1.747,2.501-2.655,3.631
		c-1.628,2.025-3.423,3.869-5.962,4.767c-4.523,1.601-8.333-0.698-8.791-5.452c-0.17-1.756,0.134-3.553,0.156-5.332
		c0.014-1.099,0.516-1.426,1.572-1.588c4.627-0.71,9.074-2.03,13.135-4.429c3.891-2.298,7.393-5.067,9.319-9.281
		c2.622-5.73,0.761-11.709-6.601-13.02c-2.779-0.495-5.545-0.287-8.271,0.463c-5.25,1.443-9.355,4.621-12.907,8.585
		c-5.825,6.501-9.495,13.872-9.212,22.873c0.257,8.18,6.211,14.045,14.417,14.038c7.573-0.007,15.696-5.968,18.546-13.651
		C721.748,82.762,720.855,82.241,719.885,81.674z M472.884,81.675c-0.939,1.291-1.748,2.502-2.656,3.632
		c-1.628,2.025-3.424,3.868-5.962,4.766c-4.524,1.6-8.332-0.699-8.79-5.455c-0.169-1.756,0.135-3.553,0.157-5.332
		c0.014-1.1,0.519-1.424,1.574-1.586c4.627-0.711,9.075-2.031,13.135-4.43c3.89-2.298,7.392-5.068,9.318-9.282
		c2.62-5.73,0.759-11.708-6.604-13.018c-2.779-0.495-5.544-0.287-8.271,0.463c-5.249,1.444-9.355,4.623-12.906,8.587
		c-5.825,6.502-9.495,13.872-9.21,22.873c0.258,8.179,6.212,14.043,14.419,14.036c7.57-0.008,15.721-5.99,18.543-13.652
		C474.746,82.761,473.854,82.24,472.884,81.675z M964.096,81.768c-0.796,1.021-1.525,2.029-2.33,2.974
		c-1.761,2.067-3.617,4.031-6.203,5.101c-4.623,1.91-8.976-0.124-9.99-4.998c-0.488-2.348-0.487-4.895-0.192-7.288
		c0.704-5.705,2.804-11.008,5.425-16.094c1.204-2.336,2.612-4.551,4.748-6.19c1.235-0.948,2.604-1.459,4.182-1.283
		c1.74,0.195,2.297,1.281,1.442,2.807c-0.406,0.726-0.871,1.422-1.229,2.17c-0.941,1.971-0.435,4.497,1.125,5.833
		c3.42,2.932,8.699,1.337,9.926-2.997c1.271-4.496-1.476-9.197-6.24-10.516c-3.321-0.919-6.669-0.744-9.979,0.156
		c-4.983,1.355-8.941,4.326-12.41,8.021c-6.176,6.579-9.985,14.128-9.7,23.415c0.252,8.195,6.191,14.067,14.402,14.045
		c5.234-0.014,9.815-1.756,13.424-5.594c2.26-2.402,4.291-5.02,6.492-7.62C965.854,82.947,964.997,82.373,964.096,81.768z
		 M677.093,81.76c-0.843,1.085-1.569,2.1-2.377,3.044c-1.765,2.065-3.634,4.021-6.226,5.074c-4.56,1.854-8.892-0.185-9.909-4.991
		c-0.496-2.346-0.505-4.895-0.209-7.287c0.71-5.747,2.819-11.09,5.472-16.208c1.21-2.334,2.623-4.544,4.773-6.168
		c1.246-0.941,2.627-1.428,4.197-1.224c1.667,0.216,2.201,1.292,1.387,2.76c-0.424,0.763-0.922,1.49-1.291,2.278
		c-0.896,1.914-0.378,4.417,1.13,5.732c3.38,2.949,8.712,1.383,9.95-2.925c1.289-4.482-1.444-9.223-6.188-10.55
		c-3.318-0.929-6.67-0.758-9.979,0.135c-4.986,1.345-8.948,4.309-12.422,8.001c-6.217,6.607-10.054,14.194-9.728,23.527
		c0.223,6.387,3.265,10.753,9.236,13.044c3.313,1.271,6.674,1.131,10.053,0.311c7.074-1.718,10.827-7.293,14.881-12.692
		C678.883,82.971,678.026,82.392,677.093,81.76z M163.272,55.951c-0.745,2.734-1.447,5.293-2.14,7.854
		c-2.079,7.695-4.172,15.388-6.219,23.093c-0.484,1.822-0.657,3.687,0.016,5.528c1.18,3.229,4.641,4.873,8.575,3.947
		c1.238-0.292,2.481-0.755,3.588-1.378c4.838-2.724,7.449-7.436,10.565-11.818c-0.827-0.534-1.508-0.975-2.032-1.312
		c-1.71,2.086-3.271,4.082-4.943,5.98c-0.557,0.633-1.346,1.128-2.122,1.482c-1.165,0.533-2.114-0.14-2.062-1.413
		c0.036-0.866,0.156-1.748,0.378-2.585c1.646-6.222,3.319-12.436,4.997-18.648c0.961-3.558,1.947-7.107,2.951-10.767
		c2.715,0,5.358,0,8.032,0c0-1.366,0-2.597,0-3.978c-2.291,0-4.513,0-6.88,0c0.677-2.448,1.312-4.718,1.932-6.992
		c0.63-2.312,1.245-4.63,1.914-7.125c-0.815,0-1.476,0.069-2.116-0.015c-1.097-0.145-1.676,0.334-2.302,1.227
		c-1.287,1.833-2.687,3.611-4.219,5.243c-3.267,3.48-7.252,5.939-11.63,7.799c-0.432,0.183-1,0.597-1.065,0.979
		c-0.156,0.915-0.05,1.875-0.05,2.897C160.101,55.951,161.59,55.951,163.272,55.951z M115.778,96.826
		c1.357,0.121,2.584,0.472,3.395-1.08c0.502-0.961,1.547-1.219,2.625-0.875c1.028,0.328,2.052,0.674,3.064,1.048
		c3.438,1.273,6.912,1.331,10.407,0.296c6.069-1.797,9.57-6.492,9.441-12.797c-0.079-3.863-1.836-7.119-4.101-10.117
		c-2.082-2.756-4.315-5.402-6.329-8.206c-1.05-1.463-2.079-3.071-2.577-4.772c-1.139-3.883,2.333-7.231,6.224-6.141
		c3.229,0.904,4.972,3.347,6.012,6.337c0.554,1.593,0.88,3.266,1.324,4.962c0.785,0.087,1.601,0.178,2.535,0.282
		c0.738-5.017,1.458-9.914,2.179-14.813c-2.359-0.303-2.32-0.265-3.694,1.125c-0.392,0.396-1.106,0.753-1.622,0.693
		c-1.22-0.142-2.463-0.41-3.6-0.868c-3.032-1.219-6.123-1.426-9.305-0.887c-6.826,1.155-11.149,7.446-9.801,14.219
		c0.719,3.61,2.519,6.652,4.797,9.462c1.625,2.006,3.378,3.925,4.828,6.05c1.345,1.972,2.709,4.052,3.452,6.288
		c1.362,4.101-2.306,7.678-6.476,6.496c-3.021-0.855-5.192-2.856-6.297-5.771c-0.714-1.885-1.216-3.896-1.465-5.895
		c-0.197-1.581-1.231-0.964-1.985-1.138c-0.954-0.219-0.954,0.481-1.038,1.12c-0.297,2.267-0.619,4.53-0.92,6.796
		C116.489,91.349,116.14,94.06,115.778,96.826z M767.24,50.904c-1.47-0.079-2.826-0.521-3.701,1.125
		c-0.234,0.441-1.147,0.797-1.698,0.737c-1.219-0.136-2.456-0.435-3.596-0.892c-3.034-1.214-6.132-1.404-9.309-0.853
		c-6.757,1.173-11.076,7.482-9.746,14.157c0.729,3.654,2.548,6.729,4.854,9.571c1.627,2.004,3.382,3.922,4.828,6.049
		c1.342,1.974,2.701,4.06,3.43,6.299c1.314,4.043-2.344,7.606-6.443,6.438c-3.931-1.121-6.092-4.013-7.104-7.83
		c-0.423-1.594-0.675-3.232-1.012-4.889c-0.556-0.031-1.103-0.012-1.628-0.105c-0.809-0.144-0.999,0.273-1.088,0.954
		c-0.479,3.668-0.986,7.331-1.475,10.998c-0.184,1.378-0.338,2.76-0.506,4.135c2.181,0.296,2.181,0.296,3.384-1.126
		c0.685-0.808,1.542-1.127,2.565-0.818c0.993,0.299,1.982,0.624,2.95,0.996c3.124,1.203,6.304,1.368,9.559,0.639
		c6.662-1.495,10.724-6.6,10.445-13.391c-0.153-3.75-1.907-6.931-4.134-9.854c-1.79-2.351-3.674-4.632-5.442-6.999
		c-1.093-1.461-2.204-2.946-3.026-4.563c-1.22-2.396-0.58-5.184,1.275-6.705c1.677-1.375,4.539-1.315,6.654,0.14
		c1.812,1.246,3.067,2.937,3.752,5.003c0.572,1.725,0.997,3.497,1.52,5.363c0.737,0.078,1.58,0.167,2.5,0.264
		C765.787,60.747,766.501,55.907,767.24,50.904z M235.104,53.499c0,0.789,0,1.603,0,2.421c0.983,0.109,1.89,0.209,2.795,0.31
		c2.525,0.28,3.345,1.41,2.688,3.904c-1.204,4.573-2.5,9.123-3.705,13.696c-1.279,4.855-2.628,9.697-3.707,14.598
		c-1.028,4.668,1.959,8.101,6.746,8.148c2.147,0.021,4.145-0.487,5.911-1.66c1.238-0.821,2.5-1.719,3.453-2.838
		c2.411-2.831,4.654-5.805,7.027-8.802c-0.982-0.635-1.662-1.073-2.267-1.464c-1.391,1.797-2.616,3.535-4.01,5.124
		c-0.804,0.918-1.796,1.747-2.856,2.343c-1.229,0.691-2.278-0.035-2.175-1.438c0.094-1.274,0.313-2.559,0.644-3.795
		c2.869-10.701,5.776-21.394,8.668-32.089c0.101-0.371,0.166-0.752,0.22-1.001C248.027,51.809,241.613,52.647,235.104,53.499z
		 M792.959,16.574c-0.832,0-1.683-0.118-2.492,0.018c-7.771,1.306-13.566,5.505-17.301,12.37c-2.399,4.41-3.252,9.184-1.605,14.095
		c2.169,6.469,8.883,10.131,16.104,9.075c6.406-0.937,11.457-4.134,15.347-9.138c3.507-4.511,5.129-9.706,4.166-15.433
		C806.223,21.884,801.225,16.222,792.959,16.574z M783.225,113.455c0.882-0.338,1.705-0.594,2.477-0.959
		c5.564-2.635,10.656-5.976,14.986-10.382c3.061-3.114,5.238-6.719,5.939-11.134c0.891-5.602-3.238-9.574-8.691-8.146
		c-3.324,0.87-5.389,3.145-6.24,6.487c-0.744,2.922,0.401,5.101,2.693,6.826c0.099,0.074,0.18,0.173,0.27,0.26
		c2.127,2.06,2.238,3.209,0.53,5.628c-0.239,0.339-0.464,0.717-0.782,0.967c-2.249,1.76-4.459,3.582-6.807,5.201
		c-1.591,1.097-3.386,1.896-5.152,2.863C782.704,111.855,782.942,112.586,783.225,113.455z M970.685,91.262
		c-0.002,2.811,1.751,4.992,4.43,5.514c4.91,0.958,10.287-3.441,10.361-8.477c0.042-2.851-1.868-5.28-4.526-5.754
		C975.893,81.643,970.688,86.062,970.685,91.262z M251.901,42.226c3.637-0.004,6.545-2.935,6.548-6.597
		c0.002-3.645-2.93-6.562-6.588-6.558c-3.684,0.004-6.596,2.889-6.6,6.537C245.258,39.342,248.155,42.229,251.901,42.226z"/>
	<path fill-rule="evenodd" clip-rule="evenodd" d="M520.558,32.992c0-0.805,0-1.579,0-2.488c0.456,0,0.859,0,1.263,0
		c9.454,0,18.909-0.087,28.361,0.055c2.71,0.041,5.486,0.466,8.101,1.194c7.745,2.155,11.33,7.446,10.752,15.437
		c-0.479,6.626-4.211,11.006-9.812,14.053c-4.171,2.271-8.699,3.313-13.4,3.451c-3.321,0.097-6.653-0.105-9.979-0.239
		c-0.835-0.034-1.23,0.111-1.468,1.017c-1.872,7.146-3.813,14.272-5.729,21.406c-0.076,0.279-0.144,0.565-0.174,0.852
		c-0.361,3.435,0.309,4.304,3.717,4.814c1.063,0.159,2.129,0.302,3.235,0.459c0,0.803,0,1.545,0,2.39c-9.503,0-19.011,0-28.595,0
		c0-0.758,0-1.529,0-2.396c0.614-0.132,1.251-0.287,1.895-0.403c2.724-0.492,4.492-2.086,5.273-4.707
		c1.008-3.38,1.953-6.779,2.885-10.18c3.346-12.211,6.688-24.422,9.99-36.644c0.354-1.312,0.564-2.691,0.621-4.048
		c0.086-2.047-0.906-3.166-2.944-3.512C523.244,33.281,521.921,33.163,520.558,32.992z M535.546,61.253
		c2.122,0,3.979,0.083,5.826-0.018c3.618-0.197,6.907-1.262,9.138-4.333c3.531-4.862,4.744-10.434,4.152-16.29
		c-0.465-4.584-3.418-6.863-7.986-6.867c-2.723-0.003-3.611,0.555-4.414,3.257c-1.252,4.212-2.369,8.465-3.539,12.701
		C537.697,53.417,536.68,57.132,535.546,61.253z"/>
	<path fill-rule="evenodd" clip-rule="evenodd" d="M373.247,33.134c0-0.959,0-1.736,0-2.53c6.707-0.956,13.355-1.904,20.205-2.881
		c-2.7,10.09-5.373,20.081-7.965,29.768c0.965-0.844,2.106-1.815,3.217-2.82c3.444-3.113,7.447-4.572,12.057-3.747
		c4.563,0.818,7.609,4.362,8.23,9.161c1.007,7.779-1.216,14.732-5.481,21.121c-3.826,5.73-8.495,10.613-14.932,13.418
		c-5.998,2.612-12.174,3.304-18.417,0.849c-1.453-0.571-2.795-1.452-4.128-2.286c-1.192-0.745-1.533-1.845-1.148-3.243
		c1.936-7.045,3.826-14.103,5.744-21.152c2.736-10.054,5.483-20.104,8.226-30.157c0.011-0.04,0.033-0.077,0.043-0.117
		c1.014-4.122,0.16-5.227-4.08-5.293C374.327,33.215,373.836,33.168,373.247,33.134z M397.006,64.261
		c0-0.666,0.037-1.335-0.006-1.998c-0.228-3.498-2.085-5.266-5.254-4.751c-1.083,0.176-2.306,0.736-3.044,1.519
		c-1.467,1.555-2.932,3.239-3.887,5.128c-4.176,8.254-6.296,17.185-8.17,26.173c-0.361,1.733,0.727,2.868,2.49,2.986
		c3.604,0.242,6.319-1.435,8.614-3.984c2.252-2.503,3.789-5.45,5.11-8.518C395.137,75.522,396.932,70.105,397.006,64.261z"/>
	<path fill-rule="evenodd" clip-rule="evenodd" d="M59.726,29.512c-1.27,6.291-2.502,12.439-3.773,18.579
		c-0.061,0.295-0.56,0.783-0.679,0.736c-0.744-0.294-1.998,0.433-2.187-1.021c-0.192-1.483-0.266-2.996-0.617-4.441
		c-0.996-4.103-2.866-7.662-6.878-9.591c-2.892-1.391-5.96-1.523-9.003-0.611c-4.117,1.233-6.796,5.915-6.23,10.502
		c0.338,2.742,1.544,5.003,3.614,6.767c3.77,3.213,7.691,6.256,11.371,9.568c3.454,3.11,6.459,6.655,7.867,11.214
		c3.752,12.152-4.604,22.79-14.329,25.238c-6.451,1.624-12.774,1.021-18.981-1.282c-1.353-0.503-2.75-0.935-4.164-1.211
		c-1.405-0.275-2.457,0.336-3.168,1.652c-0.996,1.844-1.047,1.816-3.855,1.527c1.157-7.198,2.312-14.386,3.459-21.52
		c0.208-0.058,0.287-0.1,0.367-0.1c3.176,0.023,2.543-0.147,2.697,2.456c0.346,5.867,2.467,10.761,7.686,13.899
		c3.5,2.104,7.273,2.366,11.199,1.412c6.136-1.49,10.79-10.524,6.489-16.879c-2.51-3.709-5.721-6.699-9.167-9.476
		c-3.71-2.989-7.132-6.231-9.925-10.139c-7.155-10.006-0.704-24.587,10.975-27.023c5.119-1.068,10.153-0.729,15.143,0.857
		c1.722,0.547,3.533,0.941,5.328,1.072c0.872,0.064,2.125-0.385,2.636-1.044C56.748,29.174,58.119,29.385,59.726,29.512z"/>
	<path fill-rule="evenodd" clip-rule="evenodd" d="M877.501,95.495c1.741-6.349,3.467-12.542,5.137-18.752
		c1.53-5.692,3.047-11.39,4.477-17.109c0.57-2.282-0.156-3.155-2.48-3.436c-0.822-0.099-1.646-0.183-2.55-0.284
		c0-0.804,0-1.62,0-2.327c6.383-0.884,12.779-1.769,19.297-2.671c-1.81,5.662-3.636,11.38-5.462,17.097
		c0.071,0.028,0.143,0.057,0.214,0.085c1.574-2.239,3.097-4.517,4.734-6.708c2.429-3.251,5.17-6.205,8.614-8.428
		c2.993-1.932,6.226-2.776,9.742-1.936c3.096,0.739,4.853,3.015,5.011,6.192c0.16,3.183-0.73,6.187-1.658,9.153
		c-2.096,6.695-4.318,13.352-6.479,20.026c-0.164,0.511-0.403,1.072-0.327,1.566c0.085,0.548,0.369,1.234,0.794,1.51
		c0.36,0.232,1.229,0.17,1.552-0.119c1.139-1.019,2.207-2.136,3.173-3.321c0.941-1.156,1.723-2.441,2.615-3.729
		c0.712,0.462,1.4,0.909,2.182,1.416c-2.492,3.942-4.806,7.895-8.613,10.655c-2.354,1.705-4.963,2.46-7.873,2.127
		c-3.597-0.411-5.836-3.282-5.454-6.891c0.606-5.75,2.594-11.146,4.201-16.637c1.201-4.104,2.501-8.18,3.706-12.283
		c0.536-1.826-0.26-2.766-2.179-2.767c-1.67-0.001-2.938,0.876-4.062,1.945c-3.265,3.103-5.668,6.853-7.816,10.766
		c-3.691,6.721-5.705,14.059-7.745,21.383c-0.311,1.116-0.323,2.675-1.064,3.212c-0.806,0.585-2.302,0.247-3.497,0.256
		C883.026,95.509,880.362,95.495,877.501,95.495z"/>
	<path fill-rule="evenodd" clip-rule="evenodd" d="M306.875,82.297c0.726,0.468,1.412,0.91,2.213,1.426
		c-2.546,4.027-4.9,8.118-8.9,10.845c-2.858,1.948-5.993,2.706-9.347,1.438c-2.759-1.043-4.237-3.416-3.647-6.352
		c0.914-4.549,2-9.07,3.23-13.545c1.353-4.922,2.954-9.775,4.438-14.661c0.157-0.515,0.33-1.04,0.373-1.57
		c0.085-1.055-0.582-1.763-1.707-1.921c-1.461-0.207-2.7,0.325-3.829,1.18c-2.708,2.052-4.542,4.85-6.385,7.62
		c-4.264,6.409-6.776,13.571-8.833,20.919c-0.649,2.319-1.277,4.646-1.972,6.951c-0.102,0.338-0.516,0.825-0.791,0.83
		c-3.7,0.055-7.401,0.036-11.215,0.036c1.402-5.116,2.784-10.112,4.14-15.115c1.738-6.411,3.516-12.813,5.162-19.249
		c1.064-4.159,0.491-4.839-3.752-5.127c-0.289-0.02-0.58-0.002-0.959-0.002c0-0.896,0-1.741,0-2.413
		c6.412-0.887,12.776-1.767,19.284-2.667c-1.807,5.656-3.634,11.375-5.461,17.094c0.069,0.03,0.139,0.06,0.208,0.09
		c1.57-2.233,3.089-4.504,4.722-6.689c2.429-3.251,5.173-6.197,8.605-8.44c2.599-1.698,5.421-2.447,8.524-2.216
		c4.421,0.329,7.282,4.269,6.098,9.156c-1.405,5.799-3.237,11.497-4.953,17.219c-0.978,3.26-2.094,6.478-3.145,9.716
		c-0.089,0.276-0.278,0.596-0.209,0.834c0.182,0.629,0.325,1.447,0.78,1.765c0.372,0.26,1.398,0.129,1.742-0.218
		c1.399-1.409,2.676-2.944,3.937-4.482C305.829,84.014,306.296,83.169,306.875,82.297z"/>
	<path fill-rule="evenodd" clip-rule="evenodd" d="M65.814,55.949c0-0.916,0-1.731,0-2.472c6.772-0.887,13.476-1.766,20.341-2.665
		c-0.52,1.765-1.014,3.491-1.535,5.208c-2.654,8.742-5.335,17.475-7.953,26.228c-0.449,1.503-0.778,3.072-0.904,4.632
		c-0.161,1.99,1.36,3.021,3.199,2.162c1.105-0.517,2.149-1.287,3.028-2.143c3.664-3.565,6.131-7.943,8.284-12.525
		c3.21-6.831,5.378-14.026,7.415-21.264c0.244-0.866,0.552-1.219,1.498-1.199c3.04,0.062,6.083,0.021,9.124,0.025
		c0.367,0.001,0.734,0.038,1.227,0.064c-0.975,3.571-1.93,7.044-2.871,10.521c-2.095,7.734-4.187,15.47-6.27,23.208
		c-0.151,0.56-0.368,1.16-0.295,1.707c0.091,0.688,0.269,1.628,0.743,1.926c0.461,0.289,1.591,0.16,1.999-0.231
		c1.459-1.403,2.76-2.978,4.071-4.528c0.504-0.597,0.877-1.305,1.373-2.059c0.69,0.406,1.345,0.791,2.098,1.234
		c-2.068,3.932-4.708,7.249-8.12,9.934c-2.508,1.973-5.327,2.956-8.574,2.806c-3.51-0.162-5.581-2.241-5.685-5.772
		c-0.08-2.716,0.568-5.271,1.37-7.816c0.21-0.668,0.413-1.338,0.44-2.131c-0.336,0.466-0.654,0.945-1.012,1.394
		c-2.775,3.475-5.388,7.101-8.394,10.364c-2.419,2.627-5.579,4.149-9.345,4.021c-4.034-0.139-6.875-2.893-7.044-6.939
		c-0.148-3.518,0.97-6.808,1.864-10.132c1.616-6.015,3.32-12.007,4.908-18.029c1.017-3.857,0.186-4.982-3.752-5.433
		C66.671,56,66.297,55.985,65.814,55.949z"/>
	<path fill-rule="evenodd" clip-rule="evenodd" d="M215.611,56.97c0.483-1.483,0.871-2.775,1.337-4.038
		c0.122-0.328,0.451-0.617,0.752-0.827c0.176-0.123,0.485-0.055,0.734-0.071c2.939-0.187,5.878-0.373,8.969-0.569
		c-0.955,3.446-1.884,6.717-2.767,9.999c-2.101,7.817-4.199,15.636-6.246,23.468c-0.301,1.153-0.396,2.378-0.44,3.575
		c-0.05,1.354,0.852,1.917,2.037,1.233c0.809-0.467,1.54-1.138,2.161-1.845c1.315-1.498,2.535-3.079,3.884-4.735
		c0.667,0.476,1.327,0.945,2.233,1.592c-1.867,2.326-3.538,4.715-5.53,6.797c-1.646,1.72-3.581,3.214-5.562,4.548
		c-1.594,1.073-3.553,1.221-5.423,0.718c-3.71-0.997-5.446-4.068-4.646-8.031c0.211-1.044,0.436-2.084,0.718-3.43
		c-1.368,1.855-2.459,3.526-3.743,5.033c-2.369,2.781-4.998,5.241-8.71,6.174c-6.683,1.68-12.656-2.551-13.375-9.379
		c-0.891-8.463,2.029-15.777,6.642-22.583c2.936-4.332,6.298-8.288,10.783-11.138c2.954-1.877,6.135-2.915,9.679-2.712
		c2.653,0.151,4.604,1.284,5.611,3.821C214.999,55.296,215.261,56.033,215.611,56.97z M193.978,83.688
		c0,0.582-0.073,1.175,0.013,1.743c0.272,1.799,0.949,3.439,2.74,4.167c1.655,0.673,3.209,0.098,4.497-1.035
		c0.9-0.792,1.776-1.648,2.494-2.603c4.728-6.297,7.5-13.466,8.992-21.121c0.452-2.318,0.433-4.788,0.234-7.154
		c-0.16-1.916-1.583-2.798-3.538-2.752c-2.505,0.058-4.104,1.661-5.514,3.44c-3.452,4.356-5.492,9.452-7.432,14.585
		C195.156,76.421,194.051,79.941,193.978,83.688z"/>
	<path fill-rule="evenodd" clip-rule="evenodd" d="M347.859,56.98c0.487-1.496,0.868-2.8,1.351-4.063
		c0.131-0.342,0.554-0.783,0.873-0.81c3.105-0.255,6.217-0.433,9.542-0.646c-0.286,1.07-0.531,2.004-0.784,2.936
		c-2.653,9.776-5.334,19.546-7.936,29.336c-0.422,1.591-0.576,3.269-0.694,4.918c-0.082,1.147,0.795,1.717,1.812,1.172
		c0.856-0.458,1.651-1.124,2.302-1.852c1.354-1.516,2.594-3.134,3.966-4.813c0.672,0.484,1.332,0.959,2.106,1.518
		c-2.907,4.103-5.706,8.212-9.999,10.899c-1.216,0.762-2.769,1.288-4.195,1.36c-4.918,0.248-7.827-3.336-6.843-8.17
		c0.21-1.035,0.429-2.069,0.705-3.4c-1.37,1.855-2.462,3.528-3.747,5.036c-2.37,2.78-5.003,5.235-8.716,6.165
		c-6.675,1.672-12.639-2.57-13.36-9.402c-0.799-7.562,1.474-14.294,5.369-20.592c3.042-4.917,6.605-9.408,11.448-12.712
		c2.91-1.984,6.071-3.207,9.684-3.123c3.478,0.081,5.292,1.284,6.497,4.545C347.425,55.781,347.604,56.281,347.859,56.98z
		 M326.149,83.781c0.029,0.578,0.016,1.207,0.099,1.823c0.548,4.034,3.979,5.495,7.163,2.999c0.97-0.761,1.841-1.697,2.586-2.683
		c4.488-5.937,7.091-12.724,8.766-19.9c0.633-2.713,1.141-5.466,0.507-8.262c-0.451-1.986-1.628-2.882-3.658-2.824
		c-2.452,0.07-4.028,1.64-5.417,3.379c-3.47,4.344-5.512,9.441-7.455,14.572C327.414,76.385,326.287,79.943,326.149,83.781z"/>
	<path fill-rule="evenodd" clip-rule="evenodd" d="M628.359,56.988c0.496-1.524,0.887-2.836,1.363-4.117
		c0.118-0.316,0.496-0.737,0.782-0.76c3.146-0.251,6.296-0.434,9.647-0.648c-0.716,2.579-1.399,4.996-2.057,7.42
		c-2.235,8.255-4.489,16.505-6.668,24.775c-0.409,1.554-0.601,3.184-0.72,4.79c-0.104,1.411,0.874,2.003,2.091,1.269
		c0.835-0.505,1.578-1.222,2.228-1.963c1.282-1.465,2.47-3.012,3.769-4.614c0.7,0.517,1.353,0.997,2.109,1.556
		c-2.864,4.012-5.639,7.962-9.705,10.743c-2,1.367-4.253,1.995-6.643,1.396c-3.707-0.932-5.49-4.049-4.714-7.992
		c0.207-1.055,0.444-2.103,0.74-3.497c-1.368,1.855-2.45,3.504-3.714,4.997c-2.418,2.858-5.121,5.365-8.93,6.276
		c-6.547,1.566-12.479-2.7-13.19-9.377c-0.907-8.507,2.026-15.857,6.676-22.696c2.919-4.293,6.255-8.216,10.695-11.053
		c2.948-1.883,6.122-2.935,9.67-2.748c2.708,0.144,4.686,1.289,5.694,3.885C627.753,55.323,628.002,56.024,628.359,56.988z
		 M606.651,83.729c0.025,0.563-0.003,1.153,0.088,1.725c0.279,1.749,0.925,3.351,2.647,4.103c1.705,0.745,3.283,0.146,4.607-1.008
		c0.904-0.785,1.772-1.65,2.489-2.606c4.726-6.298,7.492-13.468,8.984-21.123c0.444-2.279,0.445-4.706,0.247-7.031
		c-0.171-2.017-1.559-2.906-3.578-2.854c-2.504,0.065-4.098,1.677-5.504,3.456c-3.447,4.359-5.489,9.455-7.426,14.589
		C607.902,76.442,606.792,79.962,606.651,83.729z"/>
	<path fill-rule="evenodd" clip-rule="evenodd" d="M867.175,93.032c0,0.775,0,1.518,0,2.361c-9.592,0-19.187,0-28.887,0
		c0-0.726,0-1.488,0-2.381c0.66-0.151,1.37-0.328,2.087-0.477c2.446-0.507,4.156-1.903,4.895-4.296
		c1.016-3.289,1.96-6.602,2.873-9.922c3.422-12.448,6.836-24.899,10.203-37.362c0.385-1.428,0.586-2.938,0.627-4.417
		c0.044-1.621-0.721-2.454-2.305-2.787c-1.533-0.322-3.09-0.528-4.68-0.793c0-0.796,0-1.537,0-2.366c9.607,0,19.201,0,28.811,0
		c0.045,0.139,0.109,0.251,0.115,0.367c0.088,1.958,0.104,2.048-1.785,2.384c-3.073,0.547-4.828,2.4-5.631,5.301
		c-1.837,6.641-3.673,13.28-5.499,19.924c-2.223,8.085-4.466,16.166-6.63,24.268c-0.534,1.996-0.967,4.05-1.144,6.103
		c-0.188,2.177,0.497,2.92,2.62,3.384C864.258,92.632,865.701,92.797,867.175,93.032z"/>
	<path fill-rule="evenodd" clip-rule="evenodd" d="M435.642,81.764c0.721,0.465,1.41,0.909,2.216,1.429
		c-2.949,4.212-5.508,8.639-9.924,11.473c-1.928,1.237-4.028,1.925-6.357,1.91c-4.55-0.028-7.663-3.584-6.67-8.031
		c1.175-5.265,2.594-10.478,4-15.688c3.048-11.305,6.165-22.592,9.222-33.896c0.268-0.992,0.397-2.046,0.419-3.075
		c0.037-1.684-0.667-2.434-2.348-2.625c-1.154-0.131-2.319-0.173-3.576-0.262c0-0.817,0-1.622,0-2.358
		c6.663-0.956,13.313-1.909,20.108-2.884c-0.209,0.781-0.424,1.596-0.647,2.408c-4.738,17.259-9.488,34.515-14.2,51.78
		c-0.501,1.837-0.897,3.721-1.132,5.608c-0.218,1.756,1.109,2.618,2.487,1.531c1.643-1.297,3.028-2.938,4.435-4.51
		C434.415,83.746,434.964,82.747,435.642,81.764z"/>
	<path fill-rule="evenodd" clip-rule="evenodd" d="M576.08,32.995c0-0.875,0-1.652,0-2.35c6.707-0.962,13.357-1.916,20.147-2.889
		c-0.192,0.742-0.384,1.521-0.597,2.294c-4.753,17.297-9.52,34.591-14.248,51.896c-0.502,1.837-0.896,3.721-1.131,5.608
		c-0.218,1.755,1.049,2.554,2.501,1.538c1.274-0.892,2.391-2.061,3.419-3.244c1.084-1.249,1.982-2.661,3.007-4.063
		c0.686,0.443,1.374,0.889,2.177,1.406c-2.947,4.215-5.508,8.641-9.924,11.475c-1.928,1.237-4.029,1.924-6.357,1.909
		c-4.549-0.029-7.66-3.585-6.668-8.033c1.176-5.265,2.596-10.478,4-15.688c3.049-11.305,6.165-22.592,9.222-33.896
		c0.269-0.992,0.396-2.046,0.419-3.075c0.037-1.683-0.669-2.433-2.35-2.623C578.543,33.129,577.378,33.087,576.08,32.995z"/>
	<path fill-rule="evenodd" clip-rule="evenodd" d="M719.885,81.674c0.971,0.567,1.863,1.088,2.746,1.604
		c-2.85,7.684-10.973,13.645-18.546,13.651c-8.206,0.007-14.16-5.858-14.417-14.038c-0.283-9.001,3.387-16.371,9.212-22.873
		c3.552-3.964,7.657-7.142,12.907-8.585c2.727-0.75,5.492-0.958,8.271-0.463c7.361,1.311,9.223,7.29,6.601,13.02
		c-1.927,4.213-5.429,6.983-9.319,9.281c-4.061,2.398-8.508,3.719-13.135,4.429c-1.057,0.162-1.559,0.489-1.572,1.588
		c-0.022,1.779-0.326,3.576-0.156,5.332c0.458,4.754,4.268,7.053,8.791,5.452c2.539-0.897,4.334-2.741,5.962-4.767
		C718.138,84.175,718.946,82.965,719.885,81.674z M703.435,74.506c0.569,0,0.697,0.022,0.813-0.004
		c7.225-1.635,11.855-6.081,13.977-13.114c0.422-1.401,0.537-2.949,0.498-4.422c-0.065-2.397-1.711-3.578-3.867-2.718
		c-1.223,0.487-2.554,1.276-3.281,2.316c-1.703,2.436-3.313,4.997-4.512,7.706C705.631,67.507,704.67,70.951,703.435,74.506z"/>
	<path fill-rule="evenodd" clip-rule="evenodd" d="M472.884,81.675c0.97,0.565,1.862,1.086,2.746,1.602
		c-2.822,7.662-10.973,13.645-18.543,13.652c-8.207,0.007-14.161-5.857-14.419-14.036c-0.284-9.001,3.386-16.371,9.21-22.873
		c3.551-3.964,7.657-7.143,12.906-8.587c2.727-0.75,5.493-0.958,8.271-0.463c7.363,1.31,9.224,7.288,6.604,13.018
		c-1.927,4.213-5.429,6.984-9.318,9.282c-4.06,2.398-8.508,3.719-13.135,4.43c-1.056,0.162-1.561,0.486-1.574,1.586
		c-0.022,1.779-0.326,3.576-0.157,5.332c0.458,4.756,4.266,7.055,8.79,5.455c2.539-0.897,4.334-2.74,5.962-4.766
		C471.137,84.177,471.945,82.966,472.884,81.675z M456.606,74.357c0.285,0.104,0.358,0.148,0.432,0.151
		c0.124,0.004,0.25-0.006,0.371-0.034c7.158-1.688,11.739-6.135,13.823-13.125c0.418-1.402,0.538-2.952,0.487-4.422
		c-0.084-2.43-1.741-3.455-4.043-2.692c-1.791,0.594-2.991,1.93-4.053,3.383c-2.255,3.085-3.743,6.559-4.951,10.156
		C457.939,69.957,457.291,72.168,456.606,74.357z"/>
	<path fill-rule="evenodd" clip-rule="evenodd" d="M964.096,81.768c0.901,0.605,1.758,1.18,2.893,1.94
		c-2.201,2.601-4.232,5.218-6.492,7.62c-3.608,3.838-8.189,5.58-13.424,5.594c-8.211,0.022-14.15-5.85-14.402-14.045
		c-0.285-9.286,3.524-16.836,9.7-23.415c3.469-3.695,7.427-6.666,12.41-8.021c3.31-0.899,6.657-1.075,9.979-0.156
		c4.765,1.318,7.512,6.02,6.24,10.516c-1.227,4.334-6.506,5.929-9.926,2.997c-1.56-1.336-2.066-3.862-1.125-5.833
		c0.357-0.748,0.822-1.444,1.229-2.17c0.854-1.526,0.298-2.612-1.442-2.807c-1.577-0.176-2.946,0.334-4.182,1.283
		c-2.136,1.639-3.544,3.854-4.748,6.19c-2.621,5.086-4.721,10.389-5.425,16.094c-0.295,2.394-0.296,4.94,0.192,7.288
		c1.015,4.874,5.367,6.908,9.99,4.998c2.586-1.069,4.442-3.033,6.203-5.101C962.57,83.797,963.3,82.788,964.096,81.768z"/>
	<path fill-rule="evenodd" clip-rule="evenodd" d="M677.093,81.76c0.934,0.632,1.79,1.211,2.751,1.86
		c-4.054,5.399-7.807,10.975-14.881,12.692c-3.379,0.82-6.739,0.961-10.053-0.311c-5.972-2.291-9.014-6.657-9.236-13.044
		c-0.326-9.333,3.511-16.92,9.728-23.527c3.474-3.692,7.436-6.656,12.422-8.001c3.31-0.893,6.661-1.063,9.979-0.135
		c4.743,1.327,7.477,6.068,6.188,10.55c-1.238,4.308-6.57,5.874-9.95,2.925c-1.508-1.315-2.026-3.818-1.13-5.732
		c0.369-0.788,0.867-1.515,1.291-2.278c0.814-1.468,0.28-2.544-1.387-2.76c-1.57-0.204-2.951,0.283-4.197,1.224
		c-2.15,1.624-3.563,3.834-4.773,6.168c-2.652,5.118-4.762,10.461-5.472,16.208c-0.296,2.393-0.287,4.941,0.209,7.287
		c1.018,4.807,5.35,6.846,9.909,4.991c2.592-1.054,4.461-3.009,6.226-5.074C675.523,83.859,676.25,82.845,677.093,81.76z"/>
	<path fill-rule="evenodd" clip-rule="evenodd" d="M163.272,55.951c-1.682,0-3.172,0-4.833,0c0-1.022-0.105-1.982,0.05-2.897
		c0.065-0.382,0.633-0.796,1.065-0.979c4.378-1.859,8.363-4.318,11.63-7.799c1.532-1.632,2.932-3.41,4.219-5.243
		c0.626-0.893,1.205-1.371,2.302-1.227c0.641,0.084,1.301,0.015,2.116,0.015c-0.669,2.495-1.284,4.812-1.914,7.125
		c-0.62,2.274-1.255,4.544-1.932,6.992c2.367,0,4.589,0,6.88,0c0,1.381,0,2.611,0,3.978c-2.674,0-5.317,0-8.032,0
		c-1.003,3.659-1.99,7.209-2.951,10.767c-1.678,6.213-3.352,12.427-4.997,18.648c-0.222,0.837-0.342,1.719-0.378,2.585
		c-0.052,1.273,0.897,1.946,2.062,1.413c0.776-0.354,1.565-0.85,2.122-1.482c1.672-1.898,3.233-3.895,4.943-5.98
		c0.524,0.338,1.205,0.778,2.032,1.312c-3.116,4.383-5.728,9.095-10.565,11.818c-1.107,0.623-2.35,1.086-3.588,1.378
		c-3.934,0.926-7.395-0.718-8.575-3.947c-0.673-1.842-0.5-3.706-0.016-5.528c2.047-7.705,4.14-15.397,6.219-23.093
		C161.825,61.244,162.527,58.686,163.272,55.951z"/>
	<path fill-rule="evenodd" clip-rule="evenodd" d="M115.778,96.826c0.362-2.767,0.711-5.478,1.072-8.187
		c0.301-2.266,0.624-4.529,0.92-6.796c0.084-0.639,0.083-1.339,1.038-1.12c0.754,0.174,1.788-0.443,1.985,1.138
		c0.249,1.998,0.751,4.01,1.465,5.895c1.105,2.915,3.276,4.916,6.297,5.771c4.17,1.182,7.838-2.396,6.476-6.496
		c-0.743-2.236-2.107-4.316-3.452-6.288c-1.45-2.125-3.203-4.044-4.828-6.05c-2.278-2.81-4.078-5.852-4.797-9.462
		c-1.348-6.772,2.975-13.064,9.801-14.219c3.182-0.539,6.273-0.332,9.305,0.887c1.137,0.458,2.38,0.726,3.6,0.868
		c0.516,0.06,1.23-0.296,1.622-0.693c1.374-1.39,1.335-1.428,3.694-1.125c-0.721,4.899-1.441,9.797-2.179,14.813
		c-0.935-0.104-1.75-0.195-2.535-0.282c-0.444-1.696-0.77-3.369-1.324-4.962c-1.04-2.99-2.783-5.433-6.012-6.337
		c-3.891-1.09-7.362,2.258-6.224,6.141c0.498,1.701,1.527,3.309,2.577,4.772c2.014,2.804,4.247,5.45,6.329,8.206
		c2.265,2.998,4.021,6.254,4.101,10.117c0.129,6.305-3.372,11-9.441,12.797c-3.495,1.035-6.969,0.978-10.407-0.296
		c-1.012-0.374-2.036-0.72-3.064-1.048c-1.078-0.344-2.123-0.086-2.625,0.875C118.362,97.298,117.135,96.947,115.778,96.826z"/>
	<path fill-rule="evenodd" clip-rule="evenodd" d="M767.24,50.904c-0.739,5.002-1.453,9.843-2.191,14.843
		c-0.92-0.097-1.763-0.186-2.5-0.264c-0.522-1.866-0.947-3.639-1.52-5.363c-0.685-2.066-1.939-3.757-3.752-5.003
		c-2.115-1.455-4.978-1.516-6.654-0.14c-1.855,1.521-2.495,4.309-1.275,6.705c0.822,1.617,1.934,3.102,3.026,4.563
		c1.769,2.367,3.652,4.648,5.442,6.999c2.227,2.923,3.98,6.104,4.134,9.854c0.278,6.791-3.783,11.896-10.445,13.391
		c-3.255,0.729-6.435,0.564-9.559-0.639c-0.968-0.372-1.957-0.697-2.95-0.996c-1.023-0.309-1.881,0.011-2.565,0.818
		c-1.203,1.422-1.203,1.422-3.384,1.126c0.168-1.375,0.322-2.757,0.506-4.135c0.488-3.667,0.996-7.33,1.475-10.998
		c0.089-0.681,0.279-1.098,1.088-0.954c0.525,0.094,1.072,0.074,1.628,0.105c0.337,1.656,0.589,3.295,1.012,4.889
		c1.013,3.817,3.174,6.709,7.104,7.83c4.1,1.169,7.758-2.395,6.443-6.438c-0.729-2.239-2.088-4.325-3.43-6.299
		c-1.446-2.127-3.201-4.045-4.828-6.049c-2.307-2.842-4.126-5.917-4.854-9.571c-1.33-6.675,2.989-12.984,9.746-14.157
		c3.177-0.552,6.274-0.361,9.309,0.853c1.14,0.457,2.377,0.756,3.596,0.892c0.551,0.061,1.464-0.296,1.698-0.737
		C764.414,50.383,765.771,50.825,767.24,50.904z"/>
	<path fill-rule="evenodd" clip-rule="evenodd" d="M235.104,53.499c6.51-0.852,12.924-1.69,19.432-2.542
		c-0.054,0.249-0.119,0.63-0.22,1.001c-2.893,10.695-5.8,21.388-8.668,32.089c-0.331,1.236-0.55,2.521-0.644,3.795
		c-0.104,1.402,0.946,2.129,2.175,1.438c1.061-0.596,2.052-1.425,2.856-2.343c1.395-1.589,2.62-3.327,4.01-5.124
		c0.605,0.391,1.285,0.829,2.267,1.464c-2.374,2.997-4.616,5.971-7.027,8.802c-0.953,1.119-2.215,2.017-3.453,2.838
		c-1.767,1.173-3.764,1.682-5.911,1.66c-4.787-0.048-7.774-3.48-6.746-8.148c1.079-4.9,2.428-9.742,3.707-14.598
		c1.205-4.573,2.501-9.123,3.705-13.696c0.657-2.494-0.163-3.624-2.688-3.904c-0.905-0.1-1.812-0.201-2.795-0.31
		C235.104,55.102,235.104,54.288,235.104,53.499z"/>
	<path fill-rule="evenodd" clip-rule="evenodd" d="M792.959,16.574c8.266-0.352,13.264,5.31,14.218,10.988
		c0.963,5.728-0.659,10.922-4.166,15.433c-3.89,5.004-8.94,8.201-15.347,9.138c-7.221,1.056-13.935-2.606-16.104-9.075
		c-1.646-4.911-0.794-9.686,1.605-14.095c3.734-6.865,9.529-11.064,17.301-12.37C791.276,16.457,792.127,16.574,792.959,16.574z
		 M786.042,49.614c7.382-0.323,12.808-3.891,16.493-10.182c1.854-3.166,2.694-6.67,2.118-10.317
		c-1.015-6.418-6.476-10.991-14.657-9.738c-6.237,0.956-10.818,4.532-14.053,9.826c-1.836,3.006-2.715,6.337-2.364,9.899
		C774.12,44.601,778.821,49.912,786.042,49.614z"/>
	<path fill-rule="evenodd" clip-rule="evenodd" d="M783.225,113.455c-0.282-0.869-0.521-1.6-0.777-2.389
		c1.767-0.967,3.562-1.767,5.152-2.863c2.348-1.619,4.558-3.441,6.807-5.201c0.318-0.25,0.543-0.628,0.782-0.967
		c1.708-2.419,1.597-3.568-0.53-5.628c-0.09-0.087-0.171-0.186-0.27-0.26c-2.292-1.726-3.438-3.904-2.693-6.826
		c0.852-3.343,2.916-5.617,6.24-6.487c5.453-1.428,9.582,2.545,8.691,8.146c-0.701,4.415-2.879,8.02-5.939,11.134
		c-4.33,4.406-9.422,7.747-14.986,10.382C784.93,112.861,784.106,113.117,783.225,113.455z"/>
	<path fill-rule="evenodd" clip-rule="evenodd" d="M970.685,91.262c0.004-5.2,5.208-9.619,10.265-8.717
		c2.658,0.474,4.568,2.903,4.526,5.754c-0.074,5.035-5.451,9.435-10.361,8.477C972.436,96.254,970.683,94.072,970.685,91.262z"/>
	<path fill-rule="evenodd" clip-rule="evenodd" d="M251.901,42.226c-3.746,0.004-6.643-2.884-6.64-6.618
		c0.004-3.648,2.916-6.533,6.6-6.537c3.658-0.004,6.59,2.914,6.588,6.558C258.447,39.291,255.538,42.222,251.901,42.226z"/>
	<path fill-rule="evenodd" clip-rule="evenodd" fill="#FFFFFF" d="M535.546,61.253c1.134-4.121,2.151-7.836,3.177-11.55
		c1.17-4.236,2.287-8.489,3.539-12.701c0.803-2.702,1.691-3.26,4.414-3.257c4.568,0.004,7.521,2.283,7.986,6.867
		c0.592,5.855-0.621,11.427-4.152,16.29c-2.23,3.072-5.52,4.137-9.138,4.333C539.525,61.336,537.668,61.253,535.546,61.253z"/>
	<path fill-rule="evenodd" clip-rule="evenodd" fill="#FFFFFF" d="M397.006,64.261c-0.074,5.845-1.869,11.262-4.148,16.556
		c-1.321,3.067-2.857,6.015-5.11,8.518c-2.294,2.55-5.01,4.227-8.614,3.984c-1.763-0.118-2.851-1.253-2.49-2.986
		c1.874-8.988,3.994-17.919,8.17-26.173c0.956-1.889,2.42-3.574,3.887-5.128c0.738-0.782,1.962-1.343,3.044-1.519
		c3.168-0.515,5.026,1.253,5.254,4.751C397.043,62.926,397.006,63.595,397.006,64.261z"/>
	<path fill-rule="evenodd" clip-rule="evenodd" fill="#FFFFFF" d="M193.978,83.688c0.073-3.747,1.179-7.268,2.486-10.729
		c1.939-5.133,3.979-10.229,7.432-14.585c1.41-1.779,3.009-3.382,5.514-3.44c1.956-0.045,3.378,0.837,3.538,2.752
		c0.199,2.366,0.218,4.836-0.234,7.154c-1.491,7.655-4.264,14.824-8.992,21.121c-0.717,0.954-1.594,1.811-2.494,2.603
		c-1.288,1.133-2.842,1.708-4.497,1.035c-1.791-0.728-2.467-2.368-2.74-4.167C193.904,84.863,193.978,84.271,193.978,83.688z"/>
	<path fill-rule="evenodd" clip-rule="evenodd" fill="#FFFFFF" d="M326.149,83.781c0.137-3.838,1.265-7.396,2.59-10.896
		c1.943-5.131,3.985-10.228,7.455-14.572c1.39-1.739,2.966-3.309,5.417-3.379c2.029-0.058,3.207,0.838,3.658,2.824
		c0.634,2.795,0.126,5.549-0.507,8.262c-1.674,7.177-4.277,13.964-8.766,19.9c-0.745,0.985-1.616,1.922-2.586,2.683
		c-3.184,2.496-6.614,1.035-7.163-2.999C326.165,84.988,326.179,84.359,326.149,83.781z"/>
	<path fill-rule="evenodd" clip-rule="evenodd" fill="#FFFFFF" d="M606.651,83.729c0.141-3.768,1.251-7.287,2.556-10.75
		c1.937-5.134,3.979-10.229,7.426-14.589c1.406-1.779,3-3.391,5.504-3.456c2.02-0.053,3.407,0.837,3.578,2.854
		c0.198,2.325,0.197,4.752-0.247,7.031c-1.492,7.655-4.259,14.825-8.984,21.123c-0.717,0.956-1.585,1.821-2.489,2.606
		c-1.324,1.153-2.902,1.753-4.607,1.008c-1.723-0.752-2.368-2.354-2.647-4.103C606.648,84.883,606.677,84.293,606.651,83.729z"/>
	<path fill-rule="evenodd" clip-rule="evenodd" fill="#FFFFFF" d="M703.435,74.506c1.235-3.555,2.196-6.999,3.628-10.235
		c1.198-2.709,2.809-5.271,4.512-7.706c0.728-1.041,2.059-1.829,3.281-2.316c2.156-0.86,3.802,0.32,3.867,2.718
		c0.039,1.473-0.076,3.021-0.498,4.422c-2.121,7.033-6.752,11.479-13.977,13.114C704.132,74.528,704.004,74.506,703.435,74.506z"/>
	<path fill-rule="evenodd" clip-rule="evenodd" fill="#FFFFFF" d="M456.606,74.357c0.684-2.189,1.333-4.4,2.065-6.583
		c1.208-3.597,2.696-7.071,4.951-10.156c1.062-1.453,2.262-2.789,4.053-3.383c2.302-0.763,3.958,0.262,4.043,2.692
		c0.051,1.471-0.069,3.02-0.487,4.422c-2.083,6.99-6.665,11.438-13.823,13.125c-0.12,0.028-0.247,0.038-0.371,0.034
		C456.964,74.506,456.892,74.461,456.606,74.357z"/>
	<path fill-rule="evenodd" clip-rule="evenodd" fill="#FFFFFF" d="M786.042,49.614c-7.221,0.298-11.922-5.013-12.463-10.512
		c-0.351-3.562,0.528-6.894,2.364-9.899c3.234-5.293,7.815-8.87,14.053-9.826c8.182-1.253,13.643,3.319,14.657,9.738
		c0.576,3.647-0.264,7.152-2.118,10.317C798.85,45.724,793.424,49.291,786.042,49.614z M792.42,34.371
		c1.531-0.581,2.98-0.986,4.287-1.664c1.779-0.922,2.723-2.928,2.452-4.687c-0.237-1.546-1.464-2.695-3.698-2.988
		c-2.007-0.263-4.057-0.237-6.088-0.27c-2.568-0.04-5.137-0.01-7.717-0.01c-0.15,0.699-0.27,1.257-0.389,1.815
		c2.061,0.409,2.446,0.767,2.161,2.143c-0.699,3.372-1.438,6.736-2.161,10.104c-0.375,1.742-0.986,3.245-3.222,2.974
		c-0.136,0.694-0.246,1.257-0.383,1.956c2.72,0,5.333,0,7.946,0c1.818,0,1.818,0,1.99-1.852c-1.968-0.323-2.303-0.601-2.086-1.995
		c0.21-1.353,0.518-2.691,0.838-4.023c0.062-0.259,0.339-0.603,0.578-0.663c2.428-0.606,4.168,0.923,4.032,3.425
		c-0.064,1.193-0.07,2.408,0.087,3.588c0.141,1.058,0.842,1.771,1.949,2.012c3.009,0.656,5.718-2.059,5.959-4.882
		c-1.164-0.105-1.139-0.092-1.787,1.091c-0.176,0.32-0.552,0.531-0.836,0.792c-0.201-0.292-0.486-0.558-0.587-0.882
		c-0.222-0.71-0.379-1.445-0.511-2.179C794.927,36.45,794.219,35.023,792.42,34.371z"/>
	<path fill-rule="evenodd" clip-rule="evenodd" d="M792.42,34.371c1.799,0.652,2.507,2.079,2.816,3.808
		c0.132,0.734,0.289,1.468,0.511,2.179c0.101,0.324,0.386,0.59,0.587,0.882c0.284-0.261,0.66-0.472,0.836-0.792
		c0.648-1.183,0.623-1.196,1.787-1.091c-0.241,2.823-2.95,5.538-5.959,4.882c-1.107-0.242-1.809-0.954-1.949-2.012
		c-0.157-1.18-0.151-2.395-0.087-3.588c0.136-2.502-1.604-4.032-4.032-3.425c-0.239,0.06-0.516,0.403-0.578,0.663
		c-0.32,1.332-0.628,2.67-0.838,4.023c-0.217,1.395,0.118,1.672,2.086,1.995c-0.172,1.851-0.172,1.852-1.99,1.852
		c-2.613,0-5.227,0-7.946,0c0.137-0.698,0.247-1.261,0.383-1.956c2.235,0.271,2.847-1.232,3.222-2.974
		c0.724-3.367,1.462-6.731,2.161-10.104c0.285-1.376-0.101-1.734-2.161-2.143c0.119-0.559,0.238-1.116,0.389-1.815
		c2.58,0,5.148-0.03,7.717,0.01c2.031,0.032,4.081,0.007,6.088,0.27c2.234,0.293,3.461,1.441,3.698,2.988
		c0.271,1.759-0.673,3.764-2.452,4.687C795.4,33.385,793.951,33.79,792.42,34.371z M786.891,33.026
		c2.061,0.05,3.933,0.163,5.641-0.803c1.291-0.729,2.056-2.455,1.729-3.725c-0.251-0.977-1.459-1.687-3.033-1.763
		c-0.457-0.022-0.978-0.141-1.358,0.029c-0.592,0.264-1.386,0.63-1.572,1.142C787.709,29.521,787.364,31.226,786.891,33.026z"/>
	<path fill-rule="evenodd" clip-rule="evenodd" fill="#FFFFFF" d="M786.891,33.026c0.474-1.8,0.818-3.504,1.406-5.12
		c0.187-0.512,0.98-0.878,1.572-1.142c0.381-0.17,0.901-0.052,1.358-0.029c1.574,0.076,2.782,0.786,3.033,1.763
		c0.326,1.27-0.438,2.996-1.729,3.725C790.823,33.188,788.951,33.076,786.891,33.026z"/>
</g>
</svg>
